<svg width="140" height="52" viewBox="0 0 140 52" fill="none" xmlns="http://www.w3.org/2000/svg">
<path d="M64.2955 37V13.7273H73.2045C74.8864 13.7273 76.2841 13.9924 77.3977 14.5227C78.5189 15.0455 79.3561 15.7614 79.9091 16.6705C80.4697 17.5795 80.75 18.6098 80.75 19.7614C80.75 20.7083 80.5682 21.5189 80.2045 22.1932C79.8409 22.8598 79.3523 23.4015 78.7386 23.8182C78.125 24.2348 77.4394 24.5341 76.6818 24.7159V24.9432C77.5076 24.9886 78.2992 25.2424 79.0568 25.7045C79.822 26.1591 80.447 26.803 80.9318 27.6364C81.4167 28.4697 81.6591 29.4773 81.6591 30.6591C81.6591 31.8636 81.3674 32.947 80.7841 33.9091C80.2008 34.8636 79.322 35.6174 78.1477 36.1705C76.9735 36.7235 75.4962 37 73.7159 37H64.2955ZM68.5114 33.4773H73.0455C74.5758 33.4773 75.678 33.1856 76.3523 32.6023C77.0341 32.0114 77.375 31.2538 77.375 30.3295C77.375 29.6402 77.2045 29.0189 76.8636 28.4659C76.5227 27.9053 76.0379 27.4659 75.4091 27.1477C74.7803 26.822 74.0303 26.6591 73.1591 26.6591H68.5114V33.4773ZM68.5114 23.625H72.6818C73.4091 23.625 74.0644 23.4924 74.6477 23.2273C75.2311 22.9545 75.6894 22.572 76.0227 22.0795C76.3636 21.5795 76.5341 20.9886 76.5341 20.3068C76.5341 19.4053 76.2159 18.6629 75.5795 18.0795C74.9508 17.4962 74.0152 17.2045 72.7727 17.2045H68.5114V23.625ZM85.1449 43.5455V19.5455H89.1903V22.4318H89.429C89.6411 22.0076 89.9403 21.5568 90.3267 21.0795C90.7131 20.5947 91.2358 20.1818 91.8949 19.8409C92.554 19.4924 93.3949 19.3182 94.4176 19.3182C95.7661 19.3182 96.982 19.6629 98.0653 20.3523C99.1563 21.0341 100.02 22.0455 100.656 23.3864C101.3 24.7197 101.622 26.3561 101.622 28.2955C101.622 30.2121 101.308 31.8409 100.679 33.1818C100.05 34.5227 99.1941 35.5455 98.1108 36.25C97.0275 36.9545 95.8002 37.3068 94.429 37.3068C93.429 37.3068 92.5994 37.1402 91.9403 36.8068C91.2813 36.4735 90.7509 36.072 90.3494 35.6023C89.9555 35.125 89.6487 34.6742 89.429 34.25H89.2585V43.5455H85.1449ZM89.179 28.2727C89.179 29.4015 89.3381 30.3902 89.6562 31.2386C89.982 32.0871 90.4479 32.75 91.054 33.2273C91.6676 33.697 92.41 33.9318 93.2812 33.9318C94.1903 33.9318 94.9517 33.6894 95.5653 33.2045C96.179 32.7121 96.6411 32.0417 96.9517 31.1932C97.2699 30.3371 97.429 29.3636 97.429 28.2727C97.429 27.1894 97.2737 26.2273 96.9631 25.3864C96.6525 24.5455 96.1903 23.8864 95.5767 23.4091C94.9631 22.9318 94.1979 22.6932 93.2812 22.6932C92.4025 22.6932 91.6562 22.9242 91.0426 23.3864C90.429 23.8485 89.9631 24.4962 89.6449 25.3295C89.3343 26.1629 89.179 27.1439 89.179 28.2727ZM110.168 37.3523C109.062 37.3523 108.065 37.1553 107.179 36.7614C106.3 36.3598 105.603 35.7689 105.088 34.9886C104.58 34.2083 104.327 33.2462 104.327 32.1023C104.327 31.1174 104.509 30.303 104.872 29.6591C105.236 29.0152 105.732 28.5 106.361 28.1136C106.99 27.7273 107.698 27.4356 108.486 27.2386C109.281 27.0341 110.103 26.8864 110.952 26.7955C111.974 26.6894 112.804 26.5947 113.44 26.5114C114.077 26.4205 114.539 26.2841 114.827 26.1023C115.122 25.9129 115.27 25.6212 115.27 25.2273V25.1591C115.27 24.303 115.016 23.6402 114.509 23.1705C114.001 22.7008 113.27 22.4659 112.315 22.4659C111.308 22.4659 110.509 22.6856 109.918 23.125C109.334 23.5644 108.94 24.0833 108.736 24.6818L104.895 24.1364C105.198 23.0758 105.698 22.1894 106.395 21.4773C107.092 20.7576 107.944 20.2197 108.952 19.8636C109.959 19.5 111.073 19.3182 112.293 19.3182C113.134 19.3182 113.971 19.4167 114.804 19.6136C115.637 19.8106 116.399 20.1364 117.088 20.5909C117.777 21.0379 118.33 21.6477 118.747 22.4205C119.171 23.1932 119.384 24.1591 119.384 25.3182V37H115.429V34.6023H115.293C115.043 35.0871 114.69 35.5417 114.236 35.9659C113.789 36.3826 113.224 36.7197 112.543 36.9773C111.868 37.2273 111.077 37.3523 110.168 37.3523ZM111.236 34.3295C112.062 34.3295 112.777 34.1667 113.384 33.8409C113.99 33.5076 114.455 33.0682 114.781 32.5227C115.115 31.9773 115.281 31.3826 115.281 30.7386V28.6818C115.152 28.7879 114.933 28.8864 114.622 28.9773C114.319 29.0682 113.978 29.1477 113.599 29.2159C113.221 29.2841 112.846 29.3447 112.474 29.3977C112.103 29.4508 111.781 29.4962 111.509 29.5341C110.895 29.6174 110.346 29.7538 109.861 29.9432C109.376 30.1326 108.993 30.3977 108.713 30.7386C108.433 31.072 108.293 31.5038 108.293 32.0341C108.293 32.7917 108.569 33.3636 109.122 33.75C109.675 34.1364 110.38 34.3295 111.236 34.3295ZM125.452 43.5455C124.891 43.5455 124.372 43.5 123.895 43.4091C123.425 43.3258 123.05 43.2273 122.77 43.1136L123.724 39.9091C124.323 40.0833 124.857 40.1667 125.327 40.1591C125.796 40.1515 126.209 40.0038 126.565 39.7159C126.929 39.4356 127.236 38.9659 127.486 38.3068L127.838 37.3636L121.509 19.5455H125.872L129.895 32.7273H130.077L134.111 19.5455H138.486L131.497 39.1136C131.171 40.0379 130.74 40.8295 130.202 41.4886C129.664 42.1553 129.005 42.6629 128.224 43.0114C127.452 43.3674 126.527 43.5455 125.452 43.5455Z" fill="white"/>
<g filter="url(#filter0_i_84_2)">
<rect width="52" height="52" rx="5" fill="url(#paint0_linear_84_2)"/>
</g>
<path d="M28.546 39.3979L34.8552 39.3888V45.7129L28.546 45.7221V39.3979ZM7 34.9421V17.7732L13.3092 17.7824V28.6281L24.1572 28.6372L24.1664 34.9503L7 34.9421ZM40.9737 34.9382H39.3033L39.2941 34.929V28.5334H45.7032V34.9464L40.9737 34.9382ZM28.546 17.7786L45.7124 17.7694L45.7032 24.0824L34.8552 24.0916V34.9372L28.546 34.9464V17.7786ZM17.7486 24.1862V17.7916L17.7578 17.7824H19.4281L24.1592 17.7732V24.1862H17.7486ZM7.00048 13.3241V7L13.3097 7.00917V13.3333L7.00048 13.3241Z" fill="#1E2329"/>
<defs>
<filter id="filter0_i_84_2" x="0" y="0" width="52" height="55.8" filterUnits="userSpaceOnUse" color-interpolation-filters="sRGB">
<feFlood flood-opacity="0" result="BackgroundImageFix"/>
<feBlend mode="normal" in="SourceGraphic" in2="BackgroundImageFix" result="shape"/>
<feColorMatrix in="SourceAlpha" type="matrix" values="0 0 0 0 0 0 0 0 0 0 0 0 0 0 0 0 0 0 127 0" result="hardAlpha"/>
<feOffset dy="6"/>
<feGaussianBlur stdDeviation="1.9"/>
<feComposite in2="hardAlpha" operator="arithmetic" k2="-1" k3="1"/>
<feColorMatrix type="matrix" values="0 0 0 0 1 0 0 0 0 0.8729 0 0 0 0 0.470801 0 0 0 1 0"/>
<feBlend mode="normal" in2="shape" result="effect1_innerShadow_84_2"/>
</filter>
<linearGradient id="paint0_linear_84_2" x1="0" y1="26" x2="52" y2="26" gradientUnits="userSpaceOnUse">
<stop stop-color="#F0B90B"/>
<stop offset="1" stop-color="#F0B90B"/>
</linearGradient>
</defs>
</svg>
