<svg width="72" height="73" viewBox="0 0 72 73" fill="none" xmlns="http://www.w3.org/2000/svg">
<path d="M48.8572 46.2858C61.6387 46.2858 72.0001 35.9244 72.0001 23.1429C72.0001 10.3614 61.6387 0 48.8572 0C36.0757 0 25.7143 10.3614 25.7143 23.1429C25.7143 35.9244 36.0757 46.2858 48.8572 46.2858Z" fill="#8D949F"/>
<path d="M49 39C57.8366 39 65 31.8366 65 23C65 14.1634 57.8366 7 49 7C40.1634 7 33 14.1634 33 23C33 31.8366 40.1634 39 49 39Z" fill="#76808F"/>
<path d="M24.1429 72.2858C36.9244 72.2858 47.2858 61.9244 47.2858 49.1429C47.2858 36.3614 36.9244 26 24.1429 26C11.3614 26 1 36.3614 1 49.1429C1 61.9244 11.3614 72.2858 24.1429 72.2858Z" fill="url(#paint0_linear_40_94)"/>
<path d="M0.857178 24.8572V1.28577H24.4286L0.857178 24.8572Z" fill="#E4E6E8"/>
<path d="M48 71.1429L71.1429 48V71.1429H48Z" fill="#E4E6E8"/>
<path d="M49.4853 14.9999L41 23.4852L49.4853 31.9705L57.9706 23.4852L49.4853 14.9999Z" fill="#8D949F"/>
<path d="M15.5888 48.5246L15.6031 53.7562L20.0484 56.372V59.4348L13.0016 55.3019V46.9947L15.5888 48.5246ZM15.5888 43.293V46.3416L13 44.8101V41.7615L15.5888 40.2301L18.1904 41.7615L15.5888 43.293ZM21.9048 41.7615L24.4937 40.2301L27.0952 41.7615L24.4937 43.293L21.9048 41.7615Z" fill="#131415"/>
<path d="M17.4595 52.6718V49.6089L20.0484 51.1404V54.189L17.4595 52.6718ZM21.9048 57.469L24.4937 59.0004L27.0952 57.469V60.5176L24.4937 62.049L21.9048 60.5176V57.469ZM30.808 41.7615L33.3969 40.2301L35.9984 41.7615V44.8101L33.3969 46.3416V43.293L30.808 41.7615ZM33.3969 53.7562L33.4111 48.5246L36 46.9931V55.3003L28.9532 59.4332V56.3704L33.3969 53.7562Z" fill="#131415"/>
<path d="M31.5405 52.6716L28.9516 54.1888V51.1402L31.5405 49.6088V52.6716Z" fill="#131415"/>
<path d="M31.5405 44.3772L31.5547 47.4401L27.0968 50.0559V55.3002L24.5079 56.8173L21.9191 55.3002V50.0559L17.4611 47.4401V44.3772L20.0611 42.8458L24.4921 45.4743L28.95 42.8458L31.5516 44.3772H31.5405ZM17.4595 39.1472L24.4937 35L31.5405 39.1472L28.9516 40.6787L24.4937 38.0502L20.0484 40.6787L17.4595 39.1472Z" fill="#131415"/>
<defs>
<linearGradient id="paint0_linear_40_94" x1="24.1429" y1="26" x2="24.1429" y2="72.2857" gradientUnits="userSpaceOnUse">
<stop stop-color="#F8D136"/>
<stop offset="1" stop-color="#F2BD12"/>
</linearGradient>
</defs>
</svg>
