<svg width="71" height="70" viewBox="0 0 71 70" fill="none" xmlns="http://www.w3.org/2000/svg">
<path d="M35.5 59C49.031 59 60 48.031 60 34.5C60 20.969 49.031 10 35.5 10C21.969 10 11 20.969 11 34.5C11 48.031 21.969 59 35.5 59Z" fill="url(#paint0_linear_40_95)"/>
<path d="M0 23.5714V0H23.5714L0 23.5714Z" fill="#E4E6E8"/>
<path d="M47.1428 69.8571L70.2857 46.7142V69.8571H47.1428Z" fill="#E4E6E8"/>
<path fill-rule="evenodd" clip-rule="evenodd" d="M35.5 15C24.7389 15 16 23.7389 16 34.5C16 45.2611 24.7389 54 35.5 54C36.2656 54 37.0181 53.9451 37.762 53.8584L37.7851 53.8816L37.8111 53.8527C47.4831 52.7072 55 44.4782 55 34.5C55 24.5232 47.4831 16.3 37.814 15.1517C37.7894 15.1314 37.7678 15.1083 37.7418 15.0881V15.0794L37.6984 15.1329C36.9748 15.0506 36.2424 15 35.5 15ZM34.7778 16.4806V23.6667H28.5089C29.8334 20.8601 31.6491 18.4262 33.8187 16.5297C34.135 16.5008 34.4571 16.4936 34.7778 16.4806ZM36.2222 16.4806C36.5443 16.495 36.8679 16.4993 37.1842 16.5297C39.3581 18.4262 41.1781 20.8558 42.5056 23.6667H36.2222V16.4806ZM31.2764 16.9601C29.4503 18.9332 27.9705 21.2006 26.8998 23.6667H21.0772C23.5936 20.3125 27.1995 17.9408 31.2764 16.9601ZM39.7207 16.9601C43.7987 17.94 47.4072 20.3118 49.9242 23.6667H44.1089C43.0353 21.1998 41.5506 18.9323 39.7207 16.9601ZM20.0964 25.1111H26.322C25.3069 27.8912 24.7546 30.8189 24.6869 33.7778H17.4806C17.5966 30.7129 18.4982 27.7289 20.0964 25.1111ZM27.8993 25.1111H34.7778V33.7778H26.1313C26.2106 30.8079 26.809 27.8747 27.8993 25.1111ZM36.2222 25.1111H43.1122C44.2028 27.8747 44.8011 30.8079 44.8802 33.7778H36.2222V25.1111ZM44.6867 25.1111H50.9036C52.5018 27.7289 53.4019 30.7129 53.518 33.7778H46.3247C46.2556 30.8187 45.7018 27.891 44.6852 25.1111H44.6867ZM17.4791 35.2222H24.6854C24.753 38.1811 25.3054 41.1088 26.3206 43.8889H20.0936C18.4961 41.2708 17.5965 38.287 17.4806 35.2222H17.4791ZM26.1299 35.2222H34.7778V43.8889H27.8993C26.809 41.1252 26.2106 38.1921 26.1313 35.2222H26.1299ZM36.2208 35.2222H44.8427C44.6896 37.9421 43.9471 40.9321 42.65 43.8889H36.2222L36.2208 35.2222ZM46.2886 35.2222H53.518C53.4021 38.287 52.5024 41.2708 50.905 43.8889H44.2187C45.4363 40.9567 46.147 37.9898 46.2886 35.2222ZM21.0772 45.3333H26.9027C27.9735 47.7994 29.4532 50.0668 31.2793 52.0399C27.2006 51.0606 23.5915 48.6887 21.0743 45.3333H21.0772ZM28.5103 45.3333H34.7792V52.5194C34.46 52.505 34.1379 52.4992 33.823 52.4703C31.6506 50.5738 29.8363 48.1428 28.5103 45.3333ZM36.2237 45.3333H41.948C40.6595 47.9231 39.0253 50.326 37.0903 52.4761C36.8043 52.5021 36.5126 52.5079 36.2237 52.5194V45.3333ZM43.573 45.3333H49.9257C47.3151 48.8225 43.5284 51.2472 39.2671 52.1583C40.9704 50.0644 42.4151 47.7729 43.5701 45.3333H43.573Z" fill="white"/>
<defs>
<linearGradient id="paint0_linear_40_95" x1="35.5" y1="10" x2="35.5" y2="58.9999" gradientUnits="userSpaceOnUse">
<stop stop-color="#F8D136"/>
<stop offset="1" stop-color="#F2BD12"/>
</linearGradient>
</defs>
</svg>
