<svg width="49" height="49" viewBox="0 0 49 49" fill="none" xmlns="http://www.w3.org/2000/svg">
<path d="M24.5 49C38.031 49 49 38.031 49 24.5C49 10.969 38.031 0 24.5 0C10.969 0 0 10.969 0 24.5C0 38.031 10.969 49 24.5 49Z" fill="url(#paint0_linear_7_418)"/>
<g clip-path="url(#clip0_7_418)">
<path d="M14.0638 34.8629L22.2556 26.1132L13.9992 15.0688C14.2068 15.0501 14.3417 15.0264 14.4774 15.0264C16.1941 15.0264 17.9108 15.0362 19.6217 15.0157C19.7776 15.007 19.9329 15.0403 20.0714 15.1122C20.2099 15.1841 20.3265 15.2919 20.409 15.4243C22.0521 17.6357 23.7023 19.8421 25.3596 22.0436C25.4495 22.1629 25.5443 22.2781 25.6727 22.4408C26.177 21.9112 26.6651 21.4086 27.1441 20.8971C28.797 19.1311 30.463 17.3766 32.0873 15.5853C32.24 15.3789 32.4454 15.2173 32.682 15.1173C32.9185 15.0174 33.1776 14.9829 33.4321 15.0174C33.7478 15.0369 34.0644 15.0388 34.3803 15.0231L26.4574 23.5178L35 34.9422C34.7695 34.9634 34.6436 34.9847 34.5177 34.9855C32.8868 34.9855 31.256 34.9634 29.626 34.9994C29.3974 35.0202 29.1677 34.9772 28.9621 34.8752C28.7566 34.7732 28.5834 34.6162 28.4619 34.4216C26.7967 32.1433 25.0972 29.8895 23.4091 27.6283C23.3004 27.482 23.1786 27.3447 23.029 27.1609C22.2483 27.992 21.4905 28.7952 20.7401 29.6002C19.1681 31.282 17.6059 32.9727 16.0167 34.6374C15.799 34.8254 15.5294 34.9431 15.2434 34.9749C14.8786 35.008 14.5118 35.0126 14.1463 34.9888L14.0638 34.8629ZM16.6159 16.3339C16.7655 16.5529 16.8432 16.6779 16.9306 16.7948C17.8266 17.9933 18.7236 19.1889 19.6217 20.3814C22.8344 24.6684 26.0479 28.9552 29.2622 33.2416C29.3774 33.3952 29.5426 33.6167 29.6922 33.6224C30.5914 33.6584 31.4849 33.6404 32.4634 33.6404C32.2999 33.4075 32.1969 33.2579 32.089 33.1133C30.2867 30.7075 28.4837 28.3019 26.6798 25.8967C24.3827 22.8327 22.0837 19.7704 19.7828 16.7098C19.67 16.5332 19.4949 16.4054 19.2923 16.3518C18.4389 16.3143 17.583 16.3339 16.6159 16.3339Z" fill="#1E2329"/>
</g>
<defs>
<linearGradient id="paint0_linear_7_418" x1="24.5" y1="0" x2="24.5" y2="48.9999" gradientUnits="userSpaceOnUse">
<stop stop-color="#F8D136"/>
<stop offset="1" stop-color="#F2BD12"/>
</linearGradient>
<clipPath id="clip0_7_418">
<rect width="21" height="20" fill="white" transform="translate(14 15)"/>
</clipPath>
</defs>
</svg>
