<svg width="96" height="96" viewBox="0 0 96 96" fill="none" xmlns="http://www.w3.org/2000/svg">
<rect width="96" height="96" rx="5" fill="white"/>
<path d="M34.56 47.5717C34.56 46.6423 34.4856 45.7129 34.3304 44.8H21.76V50.049H28.9588C28.6613 51.7425 27.7008 53.2408 26.2973 54.19V57.6H30.5952C33.1112 55.2319 34.56 51.7226 34.56 47.5717Z" fill="#4285F4"/>
<path d="M21.4515 61.4399C25.2274 61.4399 28.4063 60.1784 30.72 58.0009L26.2113 54.4374C24.956 55.3049 23.3411 55.7992 21.4481 55.7992C17.8011 55.7992 14.707 53.2968 13.601 49.9199H8.95999V53.5906C11.3348 58.4053 16.1692 61.4399 21.4515 61.4399Z" fill="#34A853"/>
<path d="M13.44 50.0845C12.8922 48.3177 12.8922 46.3988 13.44 44.6285V40.96H9.07978C7.2134 44.9881 7.2134 49.7319 9.07978 53.76L13.44 50.0845Z" fill="#FBBC04"/>
<path d="M21.401 38.9212C23.3878 38.8901 25.3036 39.6539 26.743 41.0571L30.72 36.9927C28.1993 34.57 24.861 33.2428 21.401 33.2808C16.1401 33.2808 11.3252 36.3222 8.95999 41.1296L13.5857 44.8C14.6872 41.4234 17.7687 38.9212 21.401 38.9212Z" fill="#EA4335"/>
<path d="M13.7191 49.9199L8.95999 53.5906C11.3935 58.4018 16.3473 61.4399 21.76 61.4399V55.7992C18.0229 55.7992 14.8524 53.2968 13.7191 49.9199Z" fill="#2D9248"/>
<path d="M9.07978 40.96C7.2134 44.9881 7.2134 49.7319 9.07978 53.76L13.44 50.088C12.8922 48.3212 12.8922 46.4022 13.44 44.6319L9.07978 40.96Z" fill="#DBA403"/>
<path d="M21.76 33.28C16.3473 33.28 11.3935 36.3216 8.95999 41.1294L13.7191 44.8C14.8524 41.4232 18.0264 38.9208 21.76 38.9208V33.28Z" fill="#CC3A2E"/>
<path d="M44.0622 46.9808V56.7328H40.96V32.6414H49.1831C51.1682 32.6011 53.086 33.35 54.5092 34.7269C55.9526 36.0231 56.7635 37.8768 56.7332 39.8111C56.777 41.7588 55.9627 43.6293 54.5092 44.9256C53.0692 46.2957 51.2961 46.9808 49.1831 46.974L44.0622 46.9808ZM44.0622 35.6067V44.0189H49.2605C50.4145 44.0524 51.5248 43.5991 52.329 42.7696C53.9574 41.1913 53.9945 38.5887 52.4097 36.9634L52.329 36.8828C51.5383 36.0365 50.4179 35.5731 49.2605 35.6033L44.0622 35.6067ZM63.8796 39.7104C66.1743 39.7104 67.9811 40.3215 69.3067 41.5439C70.6324 42.7663 71.2918 44.4454 71.2918 46.5711V56.7328H68.331V54.4426H68.1964C66.9145 56.3265 65.2019 57.2668 63.0721 57.2668C61.2552 57.2668 59.7311 56.7295 58.5064 55.6515C57.3187 54.6508 56.6424 53.1698 56.6727 51.615C56.6727 49.9091 57.3187 48.5524 58.6107 47.5449C59.9027 46.5375 61.6253 46.0338 63.7854 46.0338C65.6258 46.0338 67.1466 46.3696 68.3343 47.0412V46.3326C68.3411 45.2715 67.87 44.2674 67.0524 43.5924C66.2315 42.8569 65.1615 42.4506 64.058 42.464C62.3252 42.464 60.9558 43.1961 59.9464 44.6502L57.2177 42.9342C58.7116 40.785 60.9356 39.7104 63.8796 39.7104ZM59.8657 51.6855C59.8623 52.4848 60.2459 53.237 60.8919 53.7038C61.5782 54.2411 62.4295 54.5265 63.3009 54.5097C64.6097 54.5064 65.8647 53.9859 66.79 53.0624C67.8162 52.0952 68.331 50.9669 68.331 49.6673C67.3653 48.8983 66.0161 48.5121 64.2834 48.5121C63.025 48.5121 61.9719 48.8143 61.1308 49.4221C60.2896 50.04 59.8657 50.7889 59.8657 51.6855ZM88.32 40.2477L77.9672 63.9999H74.7674L78.6098 55.6885L71.7999 40.2477H75.1678L80.0869 52.0885H80.1542L84.942 40.2477H88.32Z" fill="#5F6368"/>
<path d="M44.0456 49.9199H40.96V56.6898H44.0456V49.9199ZM71.133 49.9199H68.1779C68.0976 51.0882 67.5889 52.1146 66.6552 53.0027C65.7349 53.9312 64.4866 54.4546 63.1848 54.4579C63.158 54.4579 63.1346 54.4579 63.1112 54.4579C62.2712 54.4579 61.4546 54.1709 60.7886 53.6476C60.1427 53.1782 59.7646 52.4219 59.7679 51.6183C59.7679 50.9801 59.9788 50.4163 60.4004 49.9199H56.8095C56.6623 50.423 56.5853 50.9633 56.5853 51.5474C56.5552 53.1107 57.2278 54.5997 58.4092 55.6059C59.6274 56.6898 61.1434 57.23 62.9505 57.23C65.0689 57.23 66.7724 56.2846 68.0474 54.3904H68.1813V56.6932H71.1296L71.133 49.9199ZM83.84 49.9199H80.7879L79.9479 52.0235H79.881L79.0176 49.9199H75.9119L78.4085 55.6431L74.5867 63.9999H77.7693L83.84 49.9199Z" fill="#53565B"/>
</svg>
