<svg width="52" height="52" viewBox="0 0 52 52" fill="none" xmlns="http://www.w3.org/2000/svg">
<rect width="52" height="52" rx="5" fill="#F0B90B"/>
<path d="M28.546 39.3979L34.8552 39.3888V45.7129L28.546 45.7221V39.3979ZM7 34.9421V17.7732L13.3092 17.7824V28.6281L24.1572 28.6372L24.1664 34.9503L7 34.9421ZM40.9737 34.9382H39.3033L39.2941 34.929V28.5334H45.7032V34.9464L40.9737 34.9382ZM28.546 17.7786L45.7124 17.7694L45.7032 24.0824L34.8552 24.0916V34.9372L28.546 34.9464V17.7786ZM17.7486 24.1862V17.7916L17.7578 17.7824H19.4281L24.1592 17.7732V24.1862H17.7486ZM7.00048 13.3241V7L13.3097 7.00917V13.3333L7.00048 13.3241Z" fill="#1E2329"/>
</svg>
