<svg width="97" height="96" viewBox="0 0 97 96" fill="none" xmlns="http://www.w3.org/2000/svg">
<rect x="0.400024" width="96" height="96" rx="5" fill="#1D4B7E"/>
<path fill-rule="evenodd" clip-rule="evenodd" d="M25.6581 47.8875L26.0917 46.1821C27.7577 45.6818 31.158 45.4544 31.797 47.2508C32.1622 48.2968 31.1124 52.6398 30.907 53.9132L29.2867 53.9359C28.9215 53.4811 29.2182 54.3225 28.9672 53.2083C27.4153 54.5953 24.1062 54.3679 24.3573 51.5711C24.6083 48.797 27.0274 49.1608 29.6518 48.7515C29.6062 46.9779 27.3697 47.4554 25.6353 47.8647L25.6581 47.8875ZM37.8675 47.6146C36.3841 47.6146 36.1559 47.2963 34.8551 47.8647C35.0149 49.4792 35.8593 48.8425 37.0231 49.6156C39.2368 51.0708 36.8634 55.5731 31.5917 53.6403L31.8883 52.0031C33.3717 52.2987 34.1248 52.5943 35.2659 51.9576C35.5398 49.6611 31.4547 51.1618 32.5958 47.4782C33.212 45.4772 35.9277 45.75 38.1642 45.9547L37.8447 47.6146H37.8675ZM15.1374 44.1356L18.6291 44.2493L18.9942 49.7065L20.8884 45.3408C21.5274 43.7718 21.0938 44.1129 25.1104 44.1584L23.3075 53.9132L21.3448 53.8904L22.4174 46.887L19.5191 53.9359L17.1685 53.8677C17.1001 52.5034 16.9859 47.7056 16.6208 46.796L15.4341 53.8904L13.3802 53.8677L15.1374 44.1356ZM48.4339 64.8504L49.3924 63.7134C47.4754 63.4633 47.133 64.009 46.2658 62.4628L50.6704 62.4173C50.9442 61.9626 51.4006 61.5305 51.6289 61.0076C46.6081 60.6665 45.1932 61.9398 44.3945 59.7569H52.4504L53.3405 58.3699L43.3903 58.3244L42.9339 57.1648L53.66 57.1193C54.2761 56.7782 54.2761 56.3917 54.4359 55.6868L44.2804 55.664C42.4546 55.6868 42.3405 56.0961 41.9982 54.4361H54.7782L55.189 53.0264L51.4463 52.9809L51.2637 53.9359L49.1185 53.8449L50.465 45.9092L52.4961 46.1821C52.4961 46.2276 52.5417 46.3867 52.5417 46.4549C52.5417 46.5004 52.5645 46.5686 52.5645 46.5914L52.6786 47.0007C53.2492 46.3185 53.6143 45.8183 54.938 45.8637L54.2533 47.7056C53.8653 48.2058 52.7243 47.6373 52.245 49.0016L54.4815 49.0926C54.7326 47.6601 55.0064 47.228 55.4172 46.0684L55.44 45.3862L41.4505 45.409L41.4049 45.9092C42.158 45.9092 42.1351 45.7728 42.5688 46.1366L42.3634 47.4782C40.9484 47.8192 40.9941 46.9779 40.8571 48.8197C41.0625 49.1608 40.8115 48.9789 41.2451 49.0926L42.1351 49.1153C43.5729 44.454 47.8633 45.4772 48.8446 46.9324C49.3695 47.7056 49.8944 50.2523 48.5936 50.4569L44.2347 50.5024C44.4401 52.799 47.0874 52.3215 48.799 51.753C48.7305 52.708 48.799 53.4811 47.909 53.7995C47.2015 54.0496 45.7181 53.9814 44.9422 53.7995C43.0252 53.3674 42.2036 52.4124 42.0667 50.3432L41.2451 50.3205C40.492 49.9794 41.0854 50.3205 40.6974 49.3882C40.3779 51.2982 39.5107 52.5261 41.8841 52.2533C41.7472 53.3902 41.9069 53.7767 40.6518 53.9132C37.0003 54.3452 38.187 51.9122 38.7804 48.6606C39.7161 43.4762 38.9858 44.1129 41.6331 44.1584L55.2346 44.1811L54.9608 42.7713L41.8156 42.7258L42.0667 41.5889L54.5043 41.5207C54.1848 39.5879 54.1164 40.0654 49.5977 40.0654H42.7057C43.1849 38.4055 42.9339 38.8603 47.4069 38.8603H53.4546L52.8156 37.4278L44.0521 37.405L44.6455 36.2226L51.9712 36.1771C51.0355 34.2671 51.0811 34.8128 45.9007 34.7219C46.5625 33.0847 47.7264 33.494 49.7575 33.494C49.187 32.5845 48.7762 32.6527 48.4339 31.8796C47.5895 31.4475 46.8364 30.6744 45.992 30.0832C39.5335 25.5355 30.7701 25.058 23.7411 28.4688C17.4196 31.5158 11.2121 38.5647 11.2806 48.3195C11.3719 62.2582 23.6498 72.4223 37.548 70.0575C44.075 68.9433 45.7181 66.3056 48.411 64.8276L48.4339 64.8504Z" fill="#E41D2C"/>
<path fill-rule="evenodd" clip-rule="evenodd" d="M63.2935 46.0262C70.391 44.5928 69.2234 48.0739 68.651 50.8952C68.4678 51.737 68.4678 53.398 67.8039 53.853C67.6436 53.853 66.7049 53.8757 66.6133 53.8302C65.9723 53.58 66.2699 54.3308 66.1783 53.1704C64.2551 54.2625 61.2101 54.5128 61.5764 51.464C61.874 49.0295 64.3467 48.6427 66.8652 48.7565C66.7736 46.959 65.1251 47.2548 62.8356 47.8236L63.3164 46.0262H63.2935ZM70.2994 45.8214L72.1997 45.8442C72.2226 45.8897 72.2455 45.9579 72.2455 46.0034L72.5432 46.8453C72.8866 46.322 73.5277 45.8669 74.535 45.8442L74.2603 47.4596L73.3216 47.8236C71.4442 48.4379 71.5587 50.7814 71.055 53.853H68.9257L70.2994 45.8214ZM80.3962 44.0922H82.3423L80.6709 53.8757C78.4959 53.8985 79.0225 54.0123 78.3356 53.1932C76.9161 55.2864 72.6576 53.3524 73.9627 49.0295C74.9243 45.7987 78.1754 44.9341 79.778 46.8453L80.4191 44.0695L80.3962 44.0922ZM48.3659 31.806C48.7093 32.5796 49.1443 32.5113 49.6938 33.4214C47.6561 33.4214 46.4885 32.9891 45.8245 34.65C51.0217 34.741 50.9759 34.195 51.9146 36.1062L44.5653 36.1517L43.97 37.3348L52.7618 37.3576L53.4028 38.791H47.3356C42.8711 38.791 43.1 38.3587 42.6192 39.9968H49.5336C54.0668 39.9968 54.1355 39.519 54.456 41.453L41.9782 41.5212L41.7263 42.6588L54.9139 42.7044L55.1886 44.115L41.5431 44.0922L41.36 45.3664L55.3947 45.3436L55.3718 46.0262C56.425 45.0251 56.2418 44.5018 58.2108 43.933C59.8364 43.4779 60.8666 43.8192 62.4693 44.1605L62.1259 46.2537C59.3785 45.4346 57.5926 45.6394 56.9516 48.4607C56.2418 51.4868 58.6458 52.6244 61.1872 51.4185C60.9582 53.6255 60.5919 54.1715 57.9819 53.8302C56.1731 53.6027 55.6237 52.7381 54.8223 51.6688H51.5483L51.3652 52.9202L55.12 52.9657L54.7079 54.3763H41.8866C42.23 56.0372 42.3445 55.6277 44.1761 55.6049L54.3644 55.6277C54.1813 56.3103 54.2042 56.7198 53.586 57.0611L42.8253 57.1066L43.2832 58.267L53.2655 58.3125L52.3725 59.7003H44.2906C45.0919 61.8618 46.5114 60.6104 51.5483 60.9517C51.3194 61.475 50.8615 61.9073 50.5867 62.3624L46.168 62.4079C47.0151 63.9323 47.3814 63.409 49.3046 63.6593L48.343 64.7969C51.617 67.1859 54.1584 69.1881 59.4471 70.0982C64.2551 70.9173 69.2692 70.0072 73.1384 68.1187C89.8977 59.9051 89.4398 36.2427 73.0011 28.4159C67.0941 25.6173 59.264 25.3671 53.151 28.5524C50.1975 30.0768 49.4878 31.1689 48.3888 31.8287L48.3659 31.806Z" fill="#F8B02B"/>
<path fill-rule="evenodd" clip-rule="evenodd" d="M13.84 53.5318L15.8808 53.5544L17.0599 46.4867C17.4228 47.3929 17.5361 52.1726 17.6042 53.5318L19.9397 53.5997L22.8195 46.5773L21.7538 53.5544L23.7039 53.5771L25.4952 43.859C21.5043 43.8137 21.9352 43.4739 21.3003 45.037L19.4182 49.3863L19.0554 43.9496L15.586 43.8364L13.84 53.5318ZM77.014 51.7422C75.3133 49.9979 76.7645 47.0984 78.3518 47.4835C79.9164 47.8686 79.6216 51.6969 77.014 51.7422ZM79.7804 46.6C78.1931 44.6972 74.9958 45.558 74.0208 48.7747C72.7283 53.0561 76.9459 55.0042 78.3518 52.9201C79.0321 53.7356 78.5105 53.5997 80.6647 53.5997L82.32 43.859H80.3926L79.7577 46.6227L79.7804 46.6ZM64.2023 51.7648C63.8848 50.2471 65.2907 49.6581 66.6286 49.93C66.6966 51.4704 65.6082 52.3085 64.2023 51.7648ZM63.4767 45.8072L63.0005 47.5967C65.2681 47.0531 66.9234 46.7586 66.9914 48.5255C64.4971 48.4122 62.0481 48.7973 61.7534 51.2212C61.3679 54.2567 64.4064 54.0075 66.3111 52.9201C66.4018 54.0754 66.107 53.3279 66.742 53.5771C66.8327 53.6224 67.7624 53.5997 67.9211 53.5997C68.6014 53.1693 68.6014 51.493 68.7601 50.6549C69.3496 47.8233 70.4834 44.38 63.454 45.8072H63.4767ZM29.6448 49.862C29.6902 50.6322 29.5541 51.2212 29.0553 51.6063C28.7152 51.8555 27.6948 52.1499 27.2866 51.7648C26.0168 50.6096 28.3977 49.8394 29.6222 49.862H29.6448ZM26.0394 47.5514C27.7628 47.1437 29.985 46.668 30.0303 48.4349C27.4226 48.8426 25.019 48.4802 24.7696 51.2438C24.4975 54.0301 27.7855 54.2567 29.3501 52.8748C29.5995 53.9848 29.3047 53.1467 29.6675 53.5997L31.2775 53.5771C31.4816 52.2859 32.5246 47.9818 32.1618 46.9398C31.5269 45.1276 28.1709 45.3541 26.493 45.8751L26.0621 47.5741L26.0394 47.5514ZM44.8374 48.6841C45.1322 47.5288 45.6311 47.0531 46.9689 47.2343C47.4451 47.9139 47.4451 47.71 47.5358 48.6841H44.8374ZM42.4338 48.7973L42.3431 50.0206C42.4792 52.082 43.3182 53.0107 45.2002 53.4638C45.9712 53.645 47.4451 53.713 48.1481 53.4638C49.0324 53.1693 48.9644 52.3765 49.0324 51.4251C47.3317 51.9914 44.7014 52.4671 44.4973 50.1791L48.8283 50.1338C50.1208 49.93 49.5993 47.4155 49.0778 46.6227C48.1027 45.1729 43.8397 44.1535 42.4112 48.7973H42.4338ZM55.631 45.7845C55.2228 46.9398 54.9507 47.3702 54.7013 48.7973V50.0432L55.0868 51.4251C55.8804 52.4897 56.4246 53.3505 58.216 53.5771C60.801 53.9169 61.1638 53.3732 61.3905 51.1759C58.8509 52.3765 56.4926 51.2438 57.1956 48.231C57.8532 45.3994 59.6219 45.2182 62.3202 46.0337L62.6604 43.9496C61.0731 43.6325 60.0527 43.2927 58.4427 43.7231C56.4926 44.2668 56.674 44.8104 55.631 45.8072V45.7845ZM38.4656 45.6259C36.2434 45.4447 33.545 45.1502 32.9328 47.1437C31.799 50.8134 35.8353 49.3183 35.5858 51.6063C34.4294 52.2406 33.7038 51.9461 32.2299 51.6516L31.9351 53.2826C37.1731 55.2081 39.5087 50.7455 37.3318 49.273C36.1754 48.5028 35.3364 49.1598 35.1777 47.5288C36.4702 46.9398 36.6743 47.2796 38.1708 47.2796L38.4883 45.6259H38.4656Z" fill="#FEFEFE"/>
<path fill-rule="evenodd" clip-rule="evenodd" d="M40.7491 49.3023L40.9092 48.7705C41.0464 46.9759 41.0007 47.7956 42.4185 47.4633L42.6243 46.1561C42.1898 45.8016 42.2127 45.9345 41.4581 45.9345L41.5038 45.4471L41.6867 44.2063C39.034 44.162 39.7658 43.5416 38.8282 48.5933C38.2336 51.7616 37.0445 54.1324 40.7034 53.7114C41.9383 53.5785 41.8011 53.2018 41.9383 52.094C39.5829 52.3599 40.4518 51.1634 40.7491 49.3023ZM51.4972 52.8252L51.6802 51.6065L51.9089 50.2772L52.3205 48.9478C52.8236 47.6184 53.967 48.1723 54.3329 47.6849L55.019 45.8902C53.6697 45.8459 53.3038 46.3333 52.755 46.998L52.6407 46.5992C52.6407 46.577 52.6178 46.5106 52.6178 46.4663C52.6178 46.4219 52.5721 46.2447 52.5721 46.2004L50.5368 45.9345L49.1875 53.6671L51.3372 53.7557L51.5201 52.8252H51.4972ZM69.0372 53.7114H71.164C71.6671 50.7203 71.5528 48.4382 73.428 47.84L74.3656 47.4854L74.64 45.9123C73.6338 45.9345 72.9935 46.3776 72.6504 46.8872L72.3531 46.0674C72.3303 46.0231 72.3303 45.9567 72.3074 45.9123L70.4093 45.8902L69.0372 53.7114Z" fill="#FEFEFE"/>
<path fill-rule="evenodd" clip-rule="evenodd" d="M76.7183 52.4801C79.4528 52.4261 79.7593 47.8608 78.1091 47.4016C76.4354 46.9424 74.9503 50.4001 76.7183 52.4801Z" fill="#F8B02B"/>
<path fill-rule="evenodd" clip-rule="evenodd" d="M28.7611 49.9205C27.5079 49.8926 25.0711 50.8434 26.3708 52.2696C26.7885 52.7171 27.8328 52.3535 28.181 52.0739C28.6915 51.6264 28.8076 50.8713 28.7843 49.9205H28.7611ZM51.4813 51.8222L54.8 51.8501L54.4055 50.1442H51.7134L51.4813 51.8222Z" fill="#E41D2C"/>
<path fill-rule="evenodd" clip-rule="evenodd" d="M63.864 52.3247C65.3082 52.8396 66.3856 52.0336 66.3169 50.5113C64.9415 50.2651 63.5431 50.8471 63.864 52.3247ZM51.6 50.6233H54.2591V49.392L52.0126 49.28L51.6 50.6233Z" fill="#F8B02B"/>
<path fill-rule="evenodd" clip-rule="evenodd" d="M44.56 49.2801H47.76C47.6793 48.0518 47.6524 48.2858 47.0877 47.4084C45.5012 47.1745 44.9096 47.7886 44.56 49.2801Z" fill="#E41D2C"/>
<path fill-rule="evenodd" clip-rule="evenodd" d="M40.72 49.7576C41.06 50.5409 40.54 50.2544 41.2 50.5409L41.92 50.56L42 49.5284L41.22 49.5093C40.82 49.4329 41.04 49.5666 40.88 49.28L40.74 49.7385L40.72 49.7576Z" fill="#F8B02B"/>
</svg>
