<svg width="375" height="375" viewBox="0 0 375 375" fill="none" xmlns="http://www.w3.org/2000/svg">
<path d="M185.281 16.0165C186.062 16.0055 186.844 16 187.625 16V50.4C187 50.4 186.375 50.4044 185.75 50.4132L185.281 16.0165Z" fill="#EA9245"/>
<path d="M68.6532 65.6255C99.7643 34.409 141.557 16.6317 185.281 16.0165L185.75 50.4132C150.771 50.9054 117.337 65.1272 92.4476 90.1004L68.6532 65.6255Z" fill="#6186CC"/>
<path d="M18.3223 188.931C18.2002 166.008 22.5897 143.291 31.2331 122.116C39.8764 100.94 52.599 81.7341 68.6532 65.6255L92.4476 90.1004C79.6043 102.987 69.4262 118.352 62.5115 135.293C55.5969 152.233 52.0852 170.406 52.1829 188.745L18.3223 188.931Z" fill="#55C4AE"/>
<path d="M29.6749 249.929C22.2803 230.464 18.4335 209.795 18.3223 188.931L52.1829 188.745C52.2718 205.436 55.3493 221.972 61.265 237.543L29.6749 249.929Z" fill="#F4CF3B"/>
<path d="M69.4259 311.145C51.9979 293.88 38.4394 273 29.6749 249.929L61.265 237.543C68.2766 256 79.1234 272.704 93.0658 286.516L69.4259 311.145Z" fill="#1F94FF"/>
<path d="M161.225 357.896C126.599 352.343 94.5235 336.007 69.4259 311.145L93.0658 286.516C113.144 306.406 138.804 319.474 166.505 323.917L161.225 357.896Z" fill="#2BB7DC"/>
<path d="M187.625 16C206.48 16 225.202 19.1996 243.019 25.4667L231.94 57.9733C217.687 52.9597 202.709 50.4 187.625 50.4V16Z" fill="#8979FF"/>
<path d="M243.019 25.4667C280.792 38.7533 312.72 65.1892 333.149 100.094L304.044 117.675C287.701 89.7514 262.159 68.6027 231.94 57.9733L243.019 25.4667Z" fill="#FF928A"/>
<path d="M333.149 100.094C348.103 125.644 356.284 154.695 356.894 184.413L323.04 185.13C322.552 161.356 316.007 138.115 304.044 117.675L333.149 100.094Z" fill="#3CC3DF"/>
<path d="M356.894 184.413C357.201 199.365 355.587 214.293 352.094 228.82L319.2 220.656C321.995 209.034 323.286 197.092 323.04 185.13L356.894 184.413Z" fill="#FFAE4C"/>
<path d="M352.094 228.82C347.654 247.28 340.235 264.865 330.136 280.861L301.634 262.289C309.713 249.492 315.649 235.424 319.2 220.656L352.094 228.82Z" fill="#537FF1"/>
<path d="M330.136 280.861C319.544 297.637 306.163 312.415 290.59 324.536L269.997 297.229C282.456 287.532 293.161 275.71 301.634 262.289L330.136 280.861Z" fill="#6FD195"/>
<path d="M290.59 324.536C272.377 338.712 251.518 348.978 229.28 354.713C207.041 360.448 183.888 361.531 161.225 357.896L166.505 323.917C184.635 326.824 203.158 325.958 220.949 321.37C238.739 316.783 255.427 308.569 269.997 297.229L290.59 324.536Z" fill="#8C63DA"/>
<path fill-rule="evenodd" clip-rule="evenodd" d="M187.5 375C291.053 375 375 291.053 375 187.5C375 83.9466 291.053 0 187.5 0C83.9466 0 0 83.9466 0 187.5C0 291.053 83.9466 375 187.5 375ZM188 308C254.274 308 308 254.274 308 188C308 121.726 254.274 68 188 68C121.726 68 68 121.726 68 188C68 254.274 121.726 308 188 308Z" fill="#383D4F"/>
<path d="M185.281 16.0165C186.062 16.0055 186.844 16 187.625 16V50.4C187 50.4 186.375 50.4044 185.75 50.4132L185.281 16.0165Z" fill="#EA9245"/>
<path d="M68.6532 65.6255C99.7643 34.409 141.557 16.6317 185.281 16.0165L185.75 50.4132C150.771 50.9054 117.337 65.1272 92.4476 90.1004L68.6532 65.6255Z" fill="#6186CC"/>
<path d="M18.3223 188.931C18.2002 166.008 22.5897 143.291 31.2331 122.116C39.8764 100.94 52.599 81.7341 68.6532 65.6255L92.4476 90.1004C79.6043 102.987 69.4262 118.352 62.5115 135.293C55.5969 152.233 52.0852 170.406 52.1829 188.745L18.3223 188.931Z" fill="#55C4AE"/>
<path d="M29.6749 249.929C22.2803 230.464 18.4335 209.795 18.3223 188.931L52.1829 188.745C52.2718 205.436 55.3493 221.972 61.265 237.543L29.6749 249.929Z" fill="#F4CF3B"/>
<path d="M69.4259 311.145C51.9979 293.88 38.4394 273 29.6749 249.929L61.265 237.543C68.2766 256 79.1234 272.704 93.0658 286.516L69.4259 311.145Z" fill="#1F94FF"/>
<path d="M161.225 357.896C126.599 352.343 94.5235 336.007 69.4259 311.145L93.0658 286.516C113.144 306.406 138.804 319.474 166.505 323.917L161.225 357.896Z" fill="#2BB7DC"/>
<path d="M187.625 16C206.48 16 225.202 19.1996 243.019 25.4667L231.94 57.9733C217.687 52.9597 202.709 50.4 187.625 50.4V16Z" fill="#8979FF"/>
<path d="M243.019 25.4667C280.792 38.7533 312.72 65.1892 333.149 100.094L304.044 117.675C287.701 89.7514 262.159 68.6027 231.94 57.9733L243.019 25.4667Z" fill="#FF928A"/>
<path d="M333.149 100.094C348.103 125.644 356.284 154.695 356.894 184.413L323.04 185.13C322.552 161.356 316.007 138.115 304.044 117.675L333.149 100.094Z" fill="#3CC3DF"/>
<path d="M356.894 184.413C357.201 199.365 355.587 214.293 352.094 228.82L319.2 220.656C321.995 209.034 323.286 197.092 323.04 185.13L356.894 184.413Z" fill="#FFAE4C"/>
<path d="M352.094 228.82C347.654 247.28 340.235 264.865 330.136 280.861L301.634 262.289C309.713 249.492 315.649 235.424 319.2 220.656L352.094 228.82Z" fill="#537FF1"/>
<path d="M330.136 280.861C319.544 297.637 306.163 312.415 290.59 324.536L269.997 297.229C282.456 287.532 293.161 275.71 301.634 262.289L330.136 280.861Z" fill="#6FD195"/>
<path d="M290.59 324.536C272.377 338.712 251.518 348.978 229.28 354.713C207.041 360.448 183.888 361.531 161.225 357.896L166.505 323.917C184.635 326.824 203.158 325.958 220.949 321.37C238.739 316.783 255.427 308.569 269.997 297.229L290.59 324.536Z" fill="#8C63DA"/>
<path d="M155.534 175.727V199H151.318V179.83H151.182L145.739 183.307V179.443L151.523 175.727H155.534ZM170.045 199.443C168.174 199.443 166.568 198.97 165.227 198.023C163.894 197.068 162.867 195.693 162.148 193.898C161.436 192.095 161.08 189.924 161.08 187.386C161.087 184.848 161.447 182.689 162.159 180.909C162.879 179.121 163.905 177.758 165.239 176.818C166.58 175.879 168.182 175.409 170.045 175.409C171.909 175.409 173.511 175.879 174.852 176.818C176.193 177.758 177.22 179.121 177.932 180.909C178.652 182.697 179.011 184.856 179.011 187.386C179.011 189.932 178.652 192.106 177.932 193.909C177.22 195.705 176.193 197.076 174.852 198.023C173.519 198.97 171.917 199.443 170.045 199.443ZM170.045 195.886C171.5 195.886 172.648 195.17 173.489 193.739C174.337 192.299 174.761 190.182 174.761 187.386C174.761 185.538 174.568 183.985 174.182 182.727C173.795 181.47 173.25 180.523 172.545 179.886C171.841 179.242 171.008 178.92 170.045 178.92C168.598 178.92 167.455 179.64 166.614 181.08C165.773 182.511 165.348 184.614 165.341 187.386C165.333 189.242 165.519 190.803 165.898 192.068C166.284 193.333 166.83 194.288 167.534 194.932C168.239 195.568 169.076 195.886 170.045 195.886ZM191.389 199.443C189.518 199.443 187.912 198.97 186.571 198.023C185.238 197.068 184.211 195.693 183.491 193.898C182.779 192.095 182.423 189.924 182.423 187.386C182.431 184.848 182.791 182.689 183.503 180.909C184.223 179.121 185.249 177.758 186.582 176.818C187.923 175.879 189.526 175.409 191.389 175.409C193.253 175.409 194.855 175.879 196.196 176.818C197.537 177.758 198.563 179.121 199.276 180.909C199.995 182.697 200.355 184.856 200.355 187.386C200.355 189.932 199.995 192.106 199.276 193.909C198.563 195.705 197.537 197.076 196.196 198.023C194.863 198.97 193.26 199.443 191.389 199.443ZM191.389 195.886C192.844 195.886 193.991 195.17 194.832 193.739C195.681 192.299 196.105 190.182 196.105 187.386C196.105 185.538 195.912 183.985 195.526 182.727C195.139 181.47 194.594 180.523 193.889 179.886C193.185 179.242 192.351 178.92 191.389 178.92C189.942 178.92 188.798 179.64 187.957 181.08C187.116 182.511 186.692 184.614 186.685 187.386C186.677 189.242 186.863 190.803 187.241 192.068C187.628 193.333 188.173 194.288 188.878 194.932C189.582 195.568 190.42 195.886 191.389 195.886ZM204.358 175.727H209.517L216.426 192.591H216.699L223.608 175.727H228.767V199H224.722V183.011H224.506L218.074 198.932H215.051L208.619 182.977H208.403V199H204.358V175.727Z" fill="#F0B90B"/>
</svg>
