<svg width="97" height="96" viewBox="0 0 97 96" fill="none" xmlns="http://www.w3.org/2000/svg">
<rect x="0.880005" width="96" height="96" rx="5" fill="url(#paint0_linear_11_9)"/>
<path fill-rule="evenodd" clip-rule="evenodd" d="M66.0198 39.3264C64.8617 38.8631 63.0088 38.3999 60.6926 38.3999L60.6342 38.4C54.8741 38.4194 50.733 41.3092 50.733 45.4643C50.733 48.5911 53.6282 50.2125 55.9444 51.2548C57.5355 51.9707 58.3615 52.5228 58.7227 53.0986L58.3764 52.7603C58.5733 52.9573 58.7284 53.1333 58.8327 53.3061C58.9183 53.5026 58.9554 53.7043 58.9554 53.9184C58.9554 55.3081 57.1025 56.0029 55.4812 56.0029C53.165 56.0029 51.8911 55.6555 49.9223 54.8449L49.1116 54.4974L48.301 59.2456C48.3071 59.2482 48.3133 59.2507 48.3194 59.2533L48.301 59.3615C49.6907 59.9405 52.2385 60.5196 54.9021 60.5196C58.608 60.5196 61.6191 59.4773 63.3562 57.6243L63.2904 57.5601C64.451 56.373 65.0933 54.8596 65.0933 53.1077C65.0933 50.6757 63.5878 48.8228 60.1135 47.3172L59.8007 47.1611C57.9022 46.2146 56.7551 45.6427 56.7551 44.6536C56.7551 43.7271 57.7973 42.8007 60.1135 42.8007C62.0823 42.8007 63.472 43.1481 64.5143 43.6113L65.0933 43.843L66.0198 39.3264ZM42.8579 39.0947L39.152 59.9405H39.152L39.152 59.9405H45.0583L45.0583 59.9405L48.6484 39.0947H43.9002H42.8579ZM75.9794 39.0947C74.5897 39.0947 73.5474 39.2106 72.9684 40.6003L64.2827 59.9405H65.0934L65.0934 59.9405H70.5364L71.6945 56.4662H79.1063L79.8012 59.9405L79.8012 59.9405H85.36L85.36 59.9405L85.3567 59.926L83.3913 51.4864L83.3863 51.4816L80.496 39.0947H77.3692H75.9794ZM76.3081 45.0917C75.9867 45.8786 75.632 46.854 75.632 46.854C75.632 46.854 75.632 46.854 75.632 46.854C75.632 46.854 73.7791 51.8339 73.3158 52.9919H78.1564C77.8793 51.6396 76.7901 46.7382 76.7901 46.7382L76.4427 44.7697L76.4427 44.7695L76.4427 44.7694C76.4427 44.7695 76.4426 44.7695 76.4426 44.7696L76.4427 44.7695C76.3993 44.8708 76.354 44.9793 76.3081 45.0917ZM31.329 59.9405L31.277 60.0562H25.0232L19.9623 42.0618C18.767 41.3708 17.4807 40.7577 16.1257 40.2383L12.4 39.0947H23.1703C24.4442 39.0947 25.4865 39.4422 25.8339 40.8319L27.6895 49.5944C27.823 49.918 27.9385 50.2404 28.0343 50.5599L28.4975 53.4552L30.3505 49.0544L30.3768 49.0807L34.4038 39.2105H35.5619H40.6575L32.1896 58.0281L31.3928 59.9405H31.329Z" fill="white"/>
<defs>
<linearGradient id="paint0_linear_11_9" x1="91.76" y1="0.640003" x2="48.88" y2="96" gradientUnits="userSpaceOnUse">
<stop stop-color="#183093"/>
<stop offset="1" stop-color="#1C205D"/>
</linearGradient>
</defs>
</svg>
