<svg width="97" height="96" viewBox="0 0 97 96" fill="none" xmlns="http://www.w3.org/2000/svg">
<rect x="0.440002" width="96" height="96" rx="5" fill="#1E1E1F"/>
<path fill-rule="evenodd" clip-rule="evenodd" d="M23.16 27.52H73.08C74.1823 27.5233 75.2385 27.964 76.018 28.7461C76.7975 29.5282 77.2368 30.5879 77.24 31.6939V55.3461C77.2368 56.4521 76.7975 57.5119 76.018 58.2939C75.2385 59.076 74.1823 59.5168 73.08 59.52H23.16C22.0577 59.5168 21.0015 59.076 20.222 58.2939C19.4425 57.5119 19.0032 56.4521 19 55.3461V31.6939C19.0032 30.5879 19.4425 29.5282 20.222 28.7461C21.0015 27.964 22.0577 27.5233 23.16 27.52Z" fill="white"/>
<path fill-rule="evenodd" clip-rule="evenodd" d="M21.4209 24.3201H74.8191C76.3085 24.3244 77.7357 24.9128 78.7889 25.9568C79.842 27.0007 80.4356 28.4154 80.44 29.8918V66.1083C80.4356 67.5847 79.842 68.9994 78.7889 70.0434C77.7357 71.0873 76.3085 71.6758 74.8191 71.6801H21.4209C19.9315 71.6758 18.5043 71.0873 17.4511 70.0434C16.3979 68.9994 15.8043 67.5847 15.8 66.1083V29.8918C15.8043 28.4154 16.3979 27.0007 17.4511 25.9568C18.5043 24.9128 19.9315 24.3244 21.4209 24.3201Z" fill="#D9D6CC"/>
<path fill-rule="evenodd" clip-rule="evenodd" d="M23.16 27.52H73.08C74.1823 27.5233 75.2385 27.964 76.018 28.7461C76.7975 29.5282 77.2368 30.5879 77.24 31.6939V55.3461C77.2368 56.4521 76.7975 57.5119 76.018 58.2939C75.2385 59.076 74.1823 59.5168 73.08 59.52H23.16C22.0577 59.5168 21.0015 59.076 20.222 58.2939C19.4425 57.5119 19.0032 56.4521 19 55.3461V31.6939C19.0032 30.5879 19.4425 29.5282 20.222 28.7461C21.0015 27.964 22.0577 27.5233 23.16 27.52Z" fill="#3B99C9"/>
<path fill-rule="evenodd" clip-rule="evenodd" d="M22.8261 32.0488H73.4139C74.5309 32.0521 75.6013 32.4973 76.3912 33.2872C77.1811 34.0771 77.6263 35.1474 77.6295 36.2645V44.6958C77.6263 45.8128 77.1811 46.8832 76.3912 47.6731C75.6013 48.463 74.5309 48.9082 73.4139 48.9114H22.8261C21.709 48.9082 20.6386 48.463 19.8488 47.6731C19.0589 46.8832 18.6137 45.8128 18.6104 44.6958V36.2645C18.6137 35.1474 19.0589 34.0771 19.8488 33.2872C20.6386 32.4973 21.709 32.0521 22.8261 32.0488Z" fill="black"/>
<path fill-rule="evenodd" clip-rule="evenodd" d="M22.8261 32.0488H73.4139C74.5309 32.0521 75.6013 32.4973 76.3912 33.2872C77.1811 34.0771 77.6263 35.1474 77.6295 36.2645V44.6958C77.6263 45.8128 77.1811 46.8832 76.3912 47.6731C75.6013 48.463 74.5309 48.9082 73.4139 48.9114H22.8261C21.709 48.9082 20.6386 48.463 19.8488 47.6731C19.0589 46.8832 18.6137 45.8128 18.6104 44.6958V36.2645C18.6137 35.1474 19.0589 34.0771 19.8488 33.2872C20.6386 32.4973 21.709 32.0521 22.8261 32.0488Z" fill="#FFB003"/>
<path fill-rule="evenodd" clip-rule="evenodd" d="M22.8261 36.9668H73.4139C74.5309 36.9701 75.6013 37.4153 76.3912 38.2051C77.1811 38.995 77.6263 40.0654 77.6295 41.1824V49.6138C77.6263 50.7308 77.1811 51.8012 76.3912 52.5911C75.6013 53.3809 74.5309 53.8261 73.4139 53.8294H22.8261C21.709 53.8261 20.6386 53.3809 19.8488 52.5911C19.0589 51.8012 18.6137 50.7308 18.6104 49.6138V41.1824C18.6137 40.0654 19.0589 38.995 19.8488 38.2051C20.6386 37.4153 21.709 36.9701 22.8261 36.9668Z" fill="black"/>
<path fill-rule="evenodd" clip-rule="evenodd" d="M22.8261 36.9668H73.4139C74.5309 36.9701 75.6013 37.4153 76.3912 38.2051C77.1811 38.995 77.6263 40.0654 77.6295 41.1824V49.6138C77.6263 50.7308 77.1811 51.8012 76.3912 52.5911C75.6013 53.3809 74.5309 53.8261 73.4139 53.8294H22.8261C21.709 53.8261 20.6386 53.3809 19.8488 52.5911C19.0589 51.8012 18.6137 50.7308 18.6104 49.6138V41.1824C18.6137 40.0654 19.0589 38.995 19.8488 38.2051C20.6386 37.4153 21.709 36.9701 22.8261 36.9668Z" fill="#50BE3D"/>
<path fill-rule="evenodd" clip-rule="evenodd" d="M22.8261 41.8853H73.4139C74.5309 41.8885 75.6013 42.3337 76.3912 43.1236C77.1811 43.9135 77.6263 44.9839 77.6295 46.1009V54.5322C77.6263 55.6493 77.1811 56.7196 76.3912 57.5095C75.6013 58.2994 74.5309 58.7446 73.4139 58.7479H22.8261C21.709 58.7446 20.6386 58.2994 19.8488 57.5095C19.0589 56.7196 18.6137 55.6493 18.6104 54.5322V46.1009C18.6137 44.9839 19.0589 43.9135 19.8488 43.1236C20.6386 42.3337 21.709 41.8885 22.8261 41.8853Z" fill="black"/>
<path fill-rule="evenodd" clip-rule="evenodd" d="M22.8261 41.8853H73.4139C74.5309 41.8885 75.6013 42.3337 76.3912 43.1236C77.1811 43.9135 77.6263 44.9839 77.6295 46.1009V54.5322C77.6263 55.6493 77.1811 56.7196 76.3912 57.5095C75.6013 58.2994 74.5309 58.7446 73.4139 58.7479H22.8261C21.709 58.7446 20.6386 58.2994 19.8488 57.5095C19.0589 56.7196 18.6137 55.6493 18.6104 54.5322V46.1009C18.6137 44.9839 19.0589 43.9135 19.8488 43.1236C20.6386 42.3337 21.709 41.8885 22.8261 41.8853Z" fill="#F26D5F"/>
<path fill-rule="evenodd" clip-rule="evenodd" d="M15.8 46.8035H80.44V66.4765C80.4356 67.9659 79.842 69.3931 78.7889 70.4463C77.7357 71.4994 76.3085 72.093 74.8191 72.0974H21.4209C19.9315 72.093 18.5043 71.4994 17.4511 70.4463C16.3979 69.3931 15.8043 67.9659 15.8 66.4765V46.8035ZM34.7704 46.8035C41.0939 46.8035 41.7965 54.8835 48.12 54.8835C54.4435 54.8835 55.1461 46.8035 61.4696 46.8035H34.7704Z" fill="black"/>
<path fill-rule="evenodd" clip-rule="evenodd" d="M15.8 46.8035H80.44V66.4765C80.4356 67.9659 79.842 69.3931 78.7889 70.4463C77.7357 71.4994 76.3085 72.093 74.8191 72.0974H21.4209C19.9315 72.093 18.5043 71.4994 17.4511 70.4463C16.3979 69.3931 15.8043 67.9659 15.8 66.4765V46.8035ZM34.7704 46.8035C41.0939 46.8035 41.7965 54.8835 48.12 54.8835C54.4435 54.8835 55.1461 46.8035 61.4696 46.8035H34.7704Z" fill="#D9D6CC"/>
</svg>
