<svg width="71" height="70" viewBox="0 0 71 70" fill="none" xmlns="http://www.w3.org/2000/svg">
<path d="M47.1428 69.8573L70.2857 46.7144V69.8573H47.1428Z" fill="#E4E6E8"/>
<path d="M0 23.5714V0H23.5714L0 23.5714Z" fill="#E4E6E8"/>
<path d="M35.5 59C49.031 59 60 48.031 60 34.5C60 20.969 49.031 10 35.5 10C21.969 10 11 20.969 11 34.5C11 48.031 21.969 59 35.5 59Z" fill="url(#paint0_linear_31_18)"/>
<g clip-path="url(#clip0_31_18)">
<path d="M25.0638 44.8629L33.2556 36.1132L24.9992 25.0688C25.2068 25.0501 25.3417 25.0264 25.4774 25.0264C27.1941 25.0264 28.9108 25.0362 30.6218 25.0157C30.7776 25.007 30.9329 25.0403 31.0714 25.1122C31.2099 25.1841 31.3265 25.2919 31.409 25.4243C33.0521 27.6357 34.7023 29.8421 36.3596 32.0436C36.4495 32.1629 36.5443 32.2781 36.6727 32.4408C37.1771 31.9112 37.6651 31.4086 38.1441 30.8971C39.797 29.1311 41.4631 27.3766 43.0874 25.5853C43.24 25.3789 43.4454 25.2173 43.682 25.1173C43.9185 25.0174 44.1776 24.9829 44.4321 25.0174C44.7479 25.0369 45.0644 25.0388 45.3804 25.0231L37.4574 33.5178L46 44.9422C45.7695 44.9634 45.6436 44.9847 45.5177 44.9855C43.8868 44.9855 42.256 44.9634 40.626 44.9994C40.3975 45.0202 40.1677 44.9772 39.9622 44.8752C39.7566 44.7732 39.5835 44.6162 39.4619 44.4216C37.7967 42.1433 36.0972 39.8895 34.4091 37.6283C34.3004 37.482 34.1786 37.3447 34.029 37.1609C33.2483 37.992 32.4905 38.7952 31.7401 39.6002C30.1681 41.282 28.6059 42.9727 27.0167 44.6374C26.799 44.8254 26.5294 44.9431 26.2434 44.9749C25.8786 45.008 25.5118 45.0126 25.1463 44.9888L25.0638 44.8629ZM27.6159 26.3339C27.7655 26.5529 27.8432 26.6779 27.9307 26.7948C28.8266 27.9933 29.7236 29.1889 30.6218 30.3814C33.8344 34.6684 37.0479 38.9552 40.2622 43.2416C40.3775 43.3952 40.5426 43.6167 40.6922 43.6224C41.5914 43.6584 42.4849 43.6404 43.4634 43.6404C43.2999 43.4075 43.1969 43.2579 43.089 43.1133C41.2868 40.7075 39.4837 38.3019 37.6798 35.8967C35.3827 32.8327 33.0837 29.7704 30.7828 26.7098C30.67 26.5332 30.4949 26.4054 30.2923 26.3518C29.4389 26.3143 28.583 26.3339 27.6159 26.3339Z" fill="white"/>
</g>
<defs>
<linearGradient id="paint0_linear_31_18" x1="35.5" y1="10" x2="35.5" y2="58.9999" gradientUnits="userSpaceOnUse">
<stop stop-color="#F8D136"/>
<stop offset="1" stop-color="#F2BD12"/>
</linearGradient>
<clipPath id="clip0_31_18">
<rect width="21" height="20" fill="white" transform="translate(25 25)"/>
</clipPath>
</defs>
</svg>
